<?xml version="1.0" encoding="iso-8859-1"?>
<!-- Generator: Adobe Illustrator 19.0.0, SVG Export Plug-In . SVG Version: 6.00 Build 0)  -->
<svg xmlns="http://www.w3.org/2000/svg" xmlns:xlink="http://www.w3.org/1999/xlink" version="1.1" id="Layer_1" x="0px" y="0px" viewBox="0 0 512 512" style="enable-background:new 0 0 512 512;" xml:space="preserve">
<path style="fill:#E4EAF8;" d="M110.63,427.023h359.148c4.722,0,8.551-3.829,8.551-8.551V161.937c0-4.722-3.829-8.551-8.551-8.551  H110.63c-4.722,0-8.551,3.829-8.551,8.551v256.534C102.079,423.194,105.908,427.023,110.63,427.023z"/>
<path style="fill:#C7CFE2;" d="M110.63,153.386c-4.722,0-8.551,3.829-8.551,8.551v247.983h324.944  c18.891,0,34.205-15.314,34.205-34.205v-222.33H110.63z"/>
<path style="fill:#E4EAF8;" d="M418.472,384.267H25.119c-9.446,0-17.102-7.656-17.102-17.102V76.426  c0-9.446,7.656-17.102,17.102-17.102h393.353c9.446,0,17.102,7.656,17.102,17.102v290.739  C435.574,376.611,427.918,384.267,418.472,384.267z"/>
<path style="fill:#4DD5FF;" d="M400.864,358.079H42.727c-4.706,0-8.522-3.816-8.522-8.522V94.034c0-4.706,3.816-8.522,8.522-8.522  h358.137c4.706,0,8.522,3.816,8.522,8.522v255.523C409.386,354.263,405.57,358.079,400.864,358.079z"/>
<circle style="fill:#8BE4FF;" cx="102.079" cy="153.386" r="59.858"/>
<circle style="fill:#FFFFFF;" cx="102.079" cy="153.386" r="34.205"/>
<path style="fill:#81DEB6;" d="M225.106,191.115c-6.656-6.656-17.446-6.656-24.102,0l-164.4,164.401  c1.542,1.542,3.673,2.496,6.025,2.496h238.597V247.235L225.106,191.115z"/>
<path style="fill:#B4E66E;" d="M409.221,349.551V204.565l-43.375-43.375c-6.661-6.661-17.461-6.661-24.123,0L144.835,358.079  h255.857C405.402,358.079,409.221,354.261,409.221,349.551z"/>
<path d="M444.122,119.716h-0.531v-43.29c0-13.851-11.268-25.119-25.119-25.119H25.119C11.268,51.307,0,62.575,0,76.426v290.739  c0,13.851,11.268,25.119,25.119,25.119h43.29v0.534c0,4.427,3.589,8.017,8.017,8.017s8.017-3.589,8.017-8.017v-0.534h334.029  c13.851,0,25.119-11.268,25.119-25.119V135.749h0.531c4.427,0,8.017-3.589,8.017-8.017  C452.139,123.305,448.549,119.716,444.122,119.716z M418.472,376.251H25.119c-5.01,0-9.086-4.076-9.086-9.086V76.426  c0-5.01,4.076-9.086,9.086-9.086h393.353c5.01,0,9.086,4.076,9.086,9.086v290.739C427.557,372.175,423.482,376.251,418.472,376.251z  "/>
<path d="M381.025,444.66h-17.004c-4.427,0-8.017,3.589-8.017,8.017c0,4.427,3.589,8.017,8.017,8.017h17.004  c4.427,0,8.017-3.589,8.017-8.017C389.042,448.249,385.453,444.66,381.025,444.66z"/>
<path d="M432.036,444.66h-17.004c-4.427,0-8.017,3.589-8.017,8.017c0,4.427,3.589,8.017,8.017,8.017h17.004  c4.427,0,8.017-3.589,8.017-8.017C440.053,448.249,436.463,444.66,432.036,444.66z"/>
<path d="M84.443,435.574v-8.695c0-4.427-3.589-8.017-8.017-8.017s-8.017,3.589-8.017,8.017v8.698c0,4.081,1.005,8.138,2.903,11.729  c1.438,2.719,4.218,4.271,7.094,4.271c1.263,0,2.545-0.299,3.74-0.931c3.914-2.069,5.41-6.92,3.34-10.834  C84.794,438.5,84.443,437.075,84.443,435.574z"/>
<path d="M330.014,444.66H313.01c-4.427,0-8.017,3.589-8.017,8.017c0,4.427,3.589,8.017,8.017,8.017h17.004  c4.427,0,8.017-3.589,8.017-8.017C338.031,448.249,334.442,444.66,330.014,444.66z"/>
<path d="M503.983,152.202c-4.427,0-8.017,3.589-8.017,8.017v17.004c0,4.427,3.589,8.017,8.017,8.017  c4.427,0,8.017-3.589,8.017-8.017v-17.004C512,155.791,508.411,152.202,503.983,152.202z"/>
<path d="M176.982,444.66h-17.004c-4.427,0-8.017,3.589-8.017,8.017c0,4.427,3.589,8.017,8.017,8.017h17.004  c4.427,0,8.017-3.589,8.017-8.017C184.999,448.249,181.409,444.66,176.982,444.66z"/>
<path d="M227.993,444.66h-17.004c-4.427,0-8.017,3.589-8.017,8.017c0,4.427,3.589,8.017,8.017,8.017h17.004  c4.427,0,8.017-3.589,8.017-8.017C236.01,448.249,232.42,444.66,227.993,444.66z"/>
<path d="M279.004,444.66H262c-4.427,0-8.017,3.589-8.017,8.017c0,4.427,3.589,8.017,8.017,8.017h17.004  c4.427,0,8.017-3.589,8.017-8.017C287.02,448.249,283.431,444.66,279.004,444.66z"/>
<path d="M503.983,305.234c-4.427,0-8.017,3.589-8.017,8.017v17.004c0,4.427,3.589,8.017,8.017,8.017  c4.427,0,8.017-3.589,8.017-8.017v-17.004C512,308.824,508.411,305.234,503.983,305.234z"/>
<path d="M503.983,407.256c-4.427,0-8.017,3.589-8.017,8.017v17.004c0,4.427,3.589,8.017,8.017,8.017  c4.427,0,8.017-3.589,8.017-8.017v-17.004C512,410.845,508.411,407.256,503.983,407.256z"/>
<path d="M503.983,356.245c-4.427,0-8.017,3.589-8.017,8.017v17.004c0,4.427,3.589,8.017,8.017,8.017  c4.427,0,8.017-3.589,8.017-8.017v-17.004C512,359.834,508.411,356.245,503.983,356.245z"/>
<path d="M125.971,444.66h-17.004c-4.427,0-8.017,3.589-8.017,8.017c0,4.427,3.589,8.017,8.017,8.017h17.004  c4.427,0,8.017-3.589,8.017-8.017C133.988,448.249,130.399,444.66,125.971,444.66z"/>
<path d="M501.914,133.404c2.057-3.921,0.545-8.767-3.376-10.824c-3.573-1.874-7.604-2.865-11.657-2.865h-8.752  c-4.427,0-8.017,3.589-8.017,8.017c0,4.427,3.589,8.017,8.017,8.017h8.752c1.49,0,2.906,0.346,4.209,1.03  c1.189,0.623,2.462,0.919,3.718,0.919C497.693,137.698,500.481,136.136,501.914,133.404z"/>
<path d="M483.047,444.66h-17.004c-4.427,0-8.017,3.589-8.017,8.017c0,4.427,3.589,8.017,8.017,8.017h17.004  c4.427,0,8.017-3.589,8.017-8.017C491.064,448.249,487.474,444.66,483.047,444.66z"/>
<path d="M503.983,203.213c-4.427,0-8.017,3.589-8.017,8.017v17.003c0,4.427,3.589,8.017,8.017,8.017  c4.427,0,8.017-3.589,8.017-8.017v-17.003C512,206.802,508.411,203.213,503.983,203.213z"/>
<path d="M503.983,254.223c-4.427,0-8.017,3.589-8.017,8.017v17.004c0,4.427,3.589,8.017,8.017,8.017  c4.427,0,8.017-3.589,8.017-8.017V262.24C512,257.813,508.411,254.223,503.983,254.223z"/>
<path d="M372.1,155.535c-4.744-4.744-11.051-7.357-17.762-7.357c-6.711,0-13.018,2.613-17.762,7.357L181.922,310.19  c-3.131,3.131-3.131,8.206,0,11.337c3.131,3.131,8.207,3.131,11.337,0l154.655-154.654c1.716-1.716,3.998-2.662,6.424-2.662  c2.426,0,4.708,0.945,6.424,2.662l32.591,32.591v142.583H61.575L206.82,196.801c1.716-1.716,3.998-2.662,6.424-2.662  s4.708,0.945,6.424,2.662l22.112,22.111c3.131,3.131,8.207,3.131,11.337,0c3.131-3.131,3.131-8.207,0-11.337l-22.112-22.111  c-4.744-4.744-11.051-7.357-17.762-7.357c-6.711,0-13.018,2.613-17.762,7.357L36.553,344.394c-2.293,2.293-2.979,5.741-1.738,8.736  c1.241,2.995,4.164,4.949,7.406,4.949H401.37c4.427,0,8.017-3.589,8.017-8.017V196.142c0-2.126-0.844-4.165-2.348-5.668  L372.1,155.535z"/>
<path d="M102.079,195.608c23.281,0,42.221-18.941,42.221-42.221s-18.941-42.221-42.221-42.221s-42.221,18.941-42.221,42.221  S78.799,195.608,102.079,195.608z M102.079,127.198c14.44,0,26.188,11.748,26.188,26.188c0,14.44-11.748,26.188-26.188,26.188  s-26.188-11.748-26.188-26.188C75.891,138.947,87.64,127.198,102.079,127.198z"/>
<g>
</g>
<g>
</g>
<g>
</g>
<g>
</g>
<g>
</g>
<g>
</g>
<g>
</g>
<g>
</g>
<g>
</g>
<g>
</g>
<g>
</g>
<g>
</g>
<g>
</g>
<g>
</g>
<g>
</g>
</svg>
